<svg width="183" height="38" viewBox="0 0 183 38" fill="none" xmlns="http://www.w3.org/2000/svg">
<path d="M0 15.6435C0 11.4911 3.99432 10.9738 7.72213 10.9738H8.91657V10.1598C8.91657 8.74601 8.53608 7.98577 7.25736 7.98577C6.17048 7.98577 5.54516 8.52788 5.54516 9.69873V9.86232L0.625316 9.64339C0.733683 6.62888 3.77758 5.62484 7.23247 5.62484C11.4178 5.62484 13.8669 6.60402 13.8669 10.7862V15.6732C13.8669 17.1937 13.9472 18.5241 14.1109 19.6396H9.26977C9.18869 19.3124 9.05303 18.0935 9.02494 17.654C8.10262 19.2571 6.66014 19.9372 4.61963 19.9372C1.65681 19.9372 0 18.4423 0 15.6435ZM8.91657 13.8263V13.0677H7.88508C6.33504 13.0677 4.86446 13.6066 4.86446 15.4262C4.86446 16.5185 5.46489 17.33 6.57986 17.33C8.21098 17.33 8.91657 15.9707 8.91657 13.8263Z" fill="#00B2EC"/>
<path d="M16.7463 15.16V5.92236H21.8596V14.2097C21.8596 15.8881 21.9414 17.1672 23.5999 17.1672C25.1483 17.1672 25.528 15.755 25.528 14.0445V5.92236H30.6413V16.164C30.6413 17.4391 30.667 19.0149 30.724 19.6396H25.6388C25.6388 19.5033 25.6099 18.4159 25.585 17.8184C24.4668 19.3389 23.217 19.9372 21.3161 19.9372C18.078 19.9372 16.7463 18.3341 16.7463 15.16Z" fill="#00B2EC"/>
<path d="M34.6236 15.755V8.91202H32.5277V5.92237H34.6236V3.44997L39.598 1.63356V5.92237H42.3449V8.91202H39.598V14.6948C39.598 16.2987 39.7353 16.8409 41.258 16.8409C41.6931 16.8409 41.9909 16.7879 42.3449 16.7318V19.61C41.3399 19.7744 40.3606 19.8554 39.3821 19.8554C36.119 19.8554 34.6236 19.1224 34.6236 15.755Z" fill="#00B2EC"/>
<path d="M43.6605 12.7662C43.6605 8.1221 46.2172 5.62404 51.1362 5.62404C56.3314 5.62404 58.4225 8.1221 58.4225 12.7397C58.4225 17.1119 56.4944 19.9372 51.0287 19.9372C45.8897 19.9372 43.6605 17.4094 43.6605 12.7662ZM53.2313 12.7662C53.2313 9.66825 52.7144 8.2849 51.0287 8.2849C49.343 8.2849 48.8252 9.64339 48.8252 12.7397C48.8252 15.4022 49.1535 17.3012 51.0287 17.3012C52.7144 17.3012 53.2313 15.9707 53.2313 12.7662Z" fill="#00B2EC"/>
<path d="M60.9262 9.83345C60.9262 8.42043 60.8973 7.11486 60.8451 5.94883H63.5358L63.5904 8.01464C64.4581 6.49095 65.7649 5.65131 67.5325 5.65131C69.4895 5.65131 70.7699 6.54788 71.339 8.20551C72.2918 6.54788 73.7062 5.65131 75.6078 5.65131C78.736 5.65131 79.8494 7.71471 79.8494 10.9746V19.6396H77.1033V11.1374C77.1033 9.18308 76.6939 7.60725 74.6028 7.60725C72.6153 7.60725 71.7484 9.2344 71.7484 11.5175V19.6396H69.0288V11.1903C69.0288 9.18308 68.6483 7.60725 66.5797 7.60725C64.4581 7.60725 63.6433 9.64419 63.6433 11.5993V19.6396H60.9262V9.83345Z" fill="#00B2EC"/>
<path d="M82.4887 13.0942C82.4887 8.88635 84.0364 5.65131 88.4962 5.65131C92.6567 5.65131 94.0173 8.58402 93.9603 13.257H85.1786C85.2348 16.5449 86.1314 18.1753 88.3863 18.1753C90.1282 18.1753 91.081 17.1672 91.2704 15.2129L93.8528 15.5922C93.3615 18.5241 91.4037 19.9372 88.3349 19.9372C84.0644 19.9372 82.4887 17.1937 82.4887 13.0942ZM85.2043 11.5464H91.2961C91.3523 9.398 90.5632 7.46851 88.4112 7.46851C86.3771 7.46851 85.4251 9.02028 85.2043 11.5464Z" fill="#00B2EC"/>
<path d="M96.118 13.0124C96.118 8.77408 97.8037 5.6505 102.261 5.6505C105.361 5.6505 107.211 6.98093 107.512 9.99705L104.874 10.3756C104.792 8.55916 104.058 7.46851 102.261 7.46851C99.5143 7.46851 98.946 10.212 98.946 12.7662C98.946 15.5914 99.6267 18.1448 102.154 18.1448C103.839 18.1448 104.818 16.9772 104.9 14.9932L107.564 15.3757C107.348 18.391 105.254 19.9372 102.128 19.9372C97.8037 19.9372 96.118 17.2194 96.118 13.0124Z" fill="#00B2EC"/>
<path d="M110.146 0H112.893V7.87751C113.874 6.40915 115.203 5.65051 116.92 5.65051C119.829 5.65051 121.27 7.30893 121.27 10.54V19.6396H118.55V11.5464C118.55 9.37233 118.36 7.58079 115.992 7.58079C113.682 7.58079 112.893 9.72519 112.893 11.9249V19.6396H110.146V0Z" fill="#00B2EC"/>
<path d="M123.771 15.8633C123.771 11.8704 127.551 11.1903 131.328 11.1903H132.035V10.4838C132.035 8.55916 131.492 7.36105 129.617 7.36105C128.121 7.36105 127.306 8.09644 127.223 9.64419L124.559 9.29134C124.749 6.6802 126.814 5.65131 129.617 5.65131C133.151 5.65131 134.7 6.95687 134.7 10.5656V14.9122C134.7 16.6765 134.781 18.3092 134.919 19.6396H132.337C132.307 19.3389 132.255 18.2018 132.199 17.711C131.302 19.1753 129.913 19.9372 128.038 19.9372C125.481 19.9372 123.771 18.4423 123.771 15.8633ZM132.035 12.7918H131.082C128.146 12.7918 126.49 13.6916 126.49 15.7005C126.49 17.249 127.521 18.1753 128.935 18.1753C131.358 18.1753 132.06 16.2458 132.06 13.5288L132.035 12.7918Z" fill="#00B2EC"/>
<path d="M138.225 8.91202C138.225 8.04111 138.193 7.06434 138.143 5.94883H140.862L140.889 7.98577C141.841 6.46609 143.199 5.65131 144.993 5.65131C147.903 5.65131 149.343 7.33539 149.343 10.5648V19.6396H146.626V11.5464C146.626 9.398 146.407 7.60645 144.071 7.60645C141.923 7.60645 140.944 9.45413 140.944 12.1407V19.6396H138.225V8.91202Z" fill="#00B2EC"/>
<path d="M152.878 0.10746H155.783V2.71803H152.878V0.10746ZM152.958 5.94883H155.705V19.6396H152.958V5.94883Z" fill="#00B2EC"/>
<path d="M159.621 0H162.366V19.6396H159.621V0ZM162.393 11.8953L167.506 5.94803H170.739L165.437 11.8175L171.256 19.6396H167.937L162.393 11.8953Z" fill="#00B2EC"/>
<path d="M171.852 15.8633C171.852 11.8704 175.632 11.1903 179.409 11.1903H180.119V10.4838C180.119 8.55916 179.576 7.36105 177.697 7.36105C176.202 7.36105 175.387 8.09644 175.304 9.64419L172.64 9.29134C172.83 6.6802 174.9 5.65131 177.697 5.65131C181.232 5.65131 182.786 6.95687 182.786 10.5656V14.9122C182.786 16.6765 182.867 18.3092 183 19.6396H180.418C180.387 19.3389 180.336 18.2018 180.28 17.711C179.383 19.1753 177.999 19.9372 176.119 19.9372C173.567 19.9372 171.852 18.4423 171.852 15.8633ZM180.119 12.7918H179.168C176.231 12.7918 174.572 13.6916 174.572 15.7005C174.572 17.249 175.606 18.1753 177.016 18.1753C179.434 18.1753 180.146 16.2458 180.146 13.5288L180.119 12.7918Z" fill="#00B2EC"/>
<path d="M7.77285 33.1768C7.77285 33.9852 7.70093 34.6858 7.55708 35.2786C7.41324 35.8624 7.1615 36.3474 6.80189 36.7336C6.45126 37.1109 5.97477 37.3938 5.37241 37.5824C4.77904 37.762 4.02385 37.8519 3.10683 37.8519H0.544556V28.6904H3.24168C4.18568 28.6904 4.94986 28.7892 5.53424 28.9868C6.12761 29.1754 6.58612 29.4629 6.90977 29.8491C7.24242 30.2263 7.46718 30.6934 7.58405 31.2502C7.70992 31.8071 7.77285 32.4493 7.77285 33.1768ZM6.20852 33.1768C6.20852 32.6379 6.17705 32.1664 6.11412 31.7622C6.05119 31.349 5.91633 31.0032 5.70955 30.7248C5.51176 30.4374 5.21508 30.2218 4.8195 30.0781C4.43291 29.9344 3.91147 29.8626 3.25517 29.8626H2.05495V36.6797H3.12031C3.76762 36.6797 4.29356 36.6124 4.69813 36.4776C5.1027 36.3429 5.41736 36.1363 5.64212 35.8579C5.86688 35.5705 6.01523 35.2067 6.08715 34.7666C6.16806 34.3175 6.20852 33.7876 6.20852 33.1768Z" fill="#CB3A2F"/>
<path d="M16.6958 34.4298C16.6958 34.9956 16.6419 35.4986 16.534 35.9387C16.4351 36.3788 16.2508 36.7516 15.9811 37.057C15.7204 37.3623 15.3652 37.5959 14.9157 37.7575C14.4662 37.9192 13.8953 38.0001 13.203 38.0001C12.5108 38.0001 11.9444 37.9192 11.5038 37.7575C11.0633 37.5959 10.7127 37.3623 10.452 37.057C10.2002 36.7516 10.0249 36.3788 9.92602 35.9387C9.82713 35.4986 9.77768 34.9956 9.77768 34.4298V28.6904H11.2881V34.4298C11.2881 34.798 11.315 35.1259 11.369 35.4133C11.4319 35.7007 11.5353 35.9432 11.6792 36.1408C11.832 36.3294 12.0343 36.4776 12.286 36.5854C12.5377 36.6842 12.8569 36.7336 13.2435 36.7336C13.6301 36.7336 13.9492 36.6842 14.201 36.5854C14.4527 36.4776 14.6505 36.3294 14.7943 36.1408C14.9472 35.9432 15.0506 35.7007 15.1045 35.4133C15.1674 35.1259 15.1989 34.798 15.1989 34.4298V28.6904H16.6958V34.4298Z" fill="#CB3A2F"/>
<path d="M25.8088 35.3729C25.8088 35.8759 25.7189 36.289 25.5391 36.6124C25.3683 36.9357 25.1345 37.1917 24.8379 37.3803C24.5502 37.5599 24.2175 37.6857 23.8399 37.7575C23.4623 37.8204 23.0668 37.8519 22.6532 37.8519H19.12V28.6904H22.6262C23.0578 28.6904 23.4533 28.7264 23.813 28.7982C24.1726 28.8611 24.4782 28.9778 24.73 29.1485C24.9907 29.3192 25.193 29.5527 25.3368 29.8491C25.4807 30.1365 25.5526 30.5092 25.5526 30.9673C25.5526 31.5691 25.4043 32.0451 25.1076 32.3954C24.8199 32.7367 24.3569 32.9568 23.7186 33.0556C24.4288 33.1274 24.9547 33.343 25.2964 33.7023C25.638 34.0526 25.8088 34.6094 25.8088 35.3729ZM24.0287 31.1155C24.0287 30.6125 23.9029 30.2667 23.6511 30.0781C23.4084 29.8805 22.9903 29.7817 22.397 29.7817H20.6303V32.5571H22.5049C22.8015 32.5571 23.0488 32.5212 23.2466 32.4493C23.4444 32.3685 23.5972 32.2652 23.7051 32.1394C23.8219 32.0047 23.9029 31.852 23.9478 31.6814C24.0018 31.5017 24.0287 31.3131 24.0287 31.1155ZM24.258 35.2247C24.258 34.9013 24.2175 34.6364 24.1366 34.4298C24.0557 34.2232 23.9388 34.0615 23.786 33.9448C23.6421 33.819 23.4623 33.7337 23.2466 33.6888C23.0398 33.6349 22.8105 33.608 22.5588 33.608H20.6303V36.7606H22.3295C22.6622 36.7606 22.9499 36.7381 23.1926 36.6932C23.4444 36.6483 23.6466 36.5719 23.7995 36.4642C23.9523 36.3474 24.0647 36.1902 24.1366 35.9926C24.2175 35.795 24.258 35.539 24.258 35.2247Z" fill="#CB3A2F"/>
<path d="M35.3908 37.8519H33.813L33.0443 35.4941H29.3627L28.5671 37.8519H27.0971L30.3337 28.6904H32.1542L35.3908 37.8519ZM32.7072 34.3624L31.1968 29.8221L29.6864 34.3624H32.7072Z" fill="#CB3A2F"/>
<path d="M38.5604 37.8519H37.0501V28.6904H38.5604V37.8519Z" fill="#CB3A2F"/>
</svg>
