<svg xmlns="http://www.w3.org/2000/svg" version="1.1" xmlns:xlink="http://www.w3.org/1999/xlink" xmlns:svgjs="http://svgjs.dev/svgjs" width="62" height="45"><svg width="62" height="45" viewBox="0 0 62 45" fill="none" xmlns="http://www.w3.org/2000/svg">
<path d="M59.609 38.5133L40.5563 18.8092C39.8195 18.0275 39.8421 18.0192 40.7074 17.3362L60.7282 1.38107L36.9118 17.1033C36.2041 17.7524 35.7921 18.6945 36.677 19.5387L52.182 34.1651C52.482 34.7777 52.2424 35.4699 51.5859 35.6446C51.0749 35.781 50.6377 35.4343 50.2912 35.1219L13.5296 1.70869C12.3009 0.569821 10.9246 -0.125409 9.19268 0.0188516C8.26616 0.0961959 7.45731 0.430341 6.7965 1.0517C5.52916 2.24489 5.00815 3.65317 5.32466 5.31216C5.48574 6.14861 5.92425 7.08977 6.57942 7.72026L24.4351 25.1753C25.0065 25.781 24.8245 26.445 24.1581 26.9564L0 42.7877H10.8764L11.2307 42.7785C11.542 42.7737 11.7734 42.6764 11.9974 42.4683L27.7135 28.2556C28.1017 27.908 28.4208 27.5 28.5345 26.9738C28.8558 25.4977 28.1664 24.3884 27.1912 23.4051L11.2728 7.95924C11.0344 7.73069 10.8013 7.49779 10.5868 7.24794C10.3224 6.93769 10.1974 6.36717 10.5347 6.0478C10.856 5.74668 11.4135 5.80229 11.7677 6.11819L54.9499 44.172C56.0479 45.0928 57.7546 45.1493 58.863 44.8073C60.1486 44.4106 60.7673 43.6536 60.99 42.1559C61.1307 40.8445 60.6049 39.491 59.6081 38.5133" fill="#00A0DC"></path>
</svg><style>@media (prefers-color-scheme: light) { :root { filter: none; } }
@media (prefers-color-scheme: dark) { :root { filter: none; } }
</style></svg>